<svg width="78" height="64" viewBox="0 0 78 64" fill="none" xmlns="http://www.w3.org/2000/svg">
<path d="M31.8248 19.84C31.8658 19.3388 32.0976 18.8711 32.4741 18.5302C32.8507 18.1892 33.3443 17.9999 33.8566 18H46.1434C46.6557 17.9999 47.1493 18.1892 47.5259 18.5302C47.9024 18.8711 48.1342 19.3388 48.1752 19.84L48.9935 29.84C49.016 30.1152 48.9802 30.392 48.8883 30.6529C48.7965 30.9139 48.6506 31.1533 48.4598 31.3562C48.2691 31.5592 48.0376 31.7211 47.7799 31.8319C47.5222 31.9427 47.244 31.9999 46.9627 32H33.0373C32.756 31.9999 32.4778 31.9427 32.2201 31.8319C31.9624 31.7211 31.7309 31.5592 31.5402 31.3562C31.3494 31.1533 31.2035 30.9139 31.1117 30.6529C31.0198 30.392 30.984 30.1152 31.0065 29.84L31.8248 19.84V19.84Z" stroke="#181818" stroke-linecap="round" stroke-linejoin="round"/>
<path d="M44 21V16C44 14.9391 43.5786 13.9217 42.8284 13.1716C42.0783 12.4214 41.0609 12 40 12C38.9391 12 37.9217 12.4214 37.1716 13.1716C36.4214 13.9217 36 14.9391 36 16V21" stroke="#181818" stroke-linecap="round" stroke-linejoin="round"/>
<path d="M18.1742 40.4102H19.3109V44.1719C19.8305 44.1719 20.1957 44.0723 20.4066 43.873C20.6176 43.6699 20.8871 43.1855 21.2152 42.4199C21.4535 41.8574 21.6488 41.4609 21.8012 41.2305C21.9574 40.9961 22.1781 40.8008 22.4633 40.6445C22.7484 40.4844 23.0629 40.4043 23.4066 40.4043C23.8441 40.4043 24.0746 40.4082 24.098 40.416V41.4004C24.059 41.4004 23.9828 41.3984 23.8695 41.3945C23.7445 41.3906 23.6684 41.3887 23.641 41.3887C23.2777 41.3887 23.0082 41.4766 22.8324 41.6523C22.6527 41.8281 22.4477 42.2031 22.2172 42.7773C21.9281 43.5039 21.684 43.9629 21.4848 44.1543C21.2855 44.3418 21.0473 44.4922 20.7699 44.6055C21.3246 44.7578 21.8715 45.2695 22.4105 46.1406L24.1801 49H22.768L21.3324 46.668C20.9379 46.0234 20.6078 45.582 20.3422 45.3438C20.0766 45.1016 19.7328 44.9805 19.3109 44.9805V49H18.1742V40.4102ZM24.9254 45.8887C24.9254 44.7363 25.2457 43.8828 25.8863 43.3281C26.4215 42.8672 27.0738 42.6367 27.8434 42.6367C28.6988 42.6367 29.398 42.918 29.941 43.4805C30.484 44.0391 30.7555 44.8125 30.7555 45.8008C30.7555 46.6016 30.6344 47.2324 30.3922 47.6934C30.1539 48.1504 29.8043 48.5059 29.3434 48.7598C28.8863 49.0137 28.3863 49.1406 27.8434 49.1406C26.9723 49.1406 26.2672 48.8613 25.7281 48.3027C25.193 47.7441 24.9254 46.9395 24.9254 45.8887ZM26.0094 45.8887C26.0094 46.6855 26.1832 47.2832 26.5309 47.6816C26.8785 48.0762 27.316 48.2734 27.8434 48.2734C28.3668 48.2734 28.8023 48.0742 29.15 47.6758C29.4977 47.2773 29.6715 46.6699 29.6715 45.8535C29.6715 45.084 29.4957 44.502 29.1441 44.1074C28.7965 43.709 28.3629 43.5098 27.8434 43.5098C27.316 43.5098 26.8785 43.707 26.5309 44.1016C26.1832 44.4961 26.0094 45.0918 26.0094 45.8887ZM32.2977 51.3848V42.7773H33.2586V43.5859C33.4852 43.2695 33.741 43.0332 34.0262 42.877C34.3113 42.7168 34.657 42.6367 35.0633 42.6367C35.5945 42.6367 36.0633 42.7734 36.4695 43.0469C36.8758 43.3203 37.1824 43.707 37.3895 44.207C37.5965 44.7031 37.7 45.248 37.7 45.8418C37.7 46.4785 37.5848 47.0527 37.3543 47.5645C37.1277 48.0723 36.7957 48.4629 36.3582 48.7363C35.9246 49.0059 35.4676 49.1406 34.9871 49.1406C34.6355 49.1406 34.3191 49.0664 34.0379 48.918C33.7605 48.7695 33.532 48.582 33.3523 48.3555V51.3848H32.2977ZM33.2527 45.9238C33.2527 46.7246 33.4148 47.3164 33.7391 47.6992C34.0633 48.082 34.4559 48.2734 34.9168 48.2734C35.3855 48.2734 35.7859 48.0762 36.118 47.6816C36.4539 47.2832 36.6219 46.668 36.6219 45.8359C36.6219 45.043 36.4578 44.4492 36.1297 44.0547C35.8055 43.6602 35.4168 43.4629 34.9637 43.4629C34.5145 43.4629 34.116 43.6738 33.7684 44.0957C33.4246 44.5137 33.2527 45.123 33.2527 45.9238ZM40.5137 46.1875V45.3613C40.959 45.3574 41.2617 45.3398 41.4219 45.3086C41.5859 45.2773 41.7402 45.1836 41.8848 45.0273C42.0293 44.8711 42.1016 44.6758 42.1016 44.4414C42.1016 44.1562 42.0059 43.9297 41.8145 43.7617C41.627 43.5898 41.3828 43.5039 41.082 43.5039C40.4883 43.5039 40.0723 43.8535 39.834 44.5527L38.832 44.3887C39.1445 43.2207 39.8984 42.6367 41.0938 42.6367C41.7578 42.6367 42.2773 42.8184 42.6523 43.1816C43.0312 43.5449 43.2207 43.9785 43.2207 44.4824C43.2207 44.9902 42.9746 45.3945 42.4824 45.6953C42.7949 45.8633 43.0293 46.0781 43.1855 46.3398C43.3418 46.5977 43.4199 46.9043 43.4199 47.2598C43.4199 47.8184 43.2168 48.2715 42.8105 48.6191C42.4043 48.9668 41.8359 49.1406 41.1055 49.1406C39.6875 49.1406 38.8652 48.5098 38.6387 47.248L39.6289 47.0371C39.7188 47.4355 39.9004 47.7441 40.1738 47.9629C40.4512 48.1816 40.7676 48.291 41.123 48.291C41.4785 48.291 41.7734 48.1914 42.0078 47.9922C42.2461 47.7891 42.3652 47.5312 42.3652 47.2188C42.3652 46.9766 42.291 46.7656 42.1426 46.5859C41.9941 46.4062 41.8359 46.2949 41.668 46.252C41.5 46.2051 41.1953 46.1816 40.7539 46.1816C40.7188 46.1816 40.6387 46.1836 40.5137 46.1875ZM44.9445 42.7773H45.9992V47.5234L48.923 42.7773H50.0598V49H49.0051V44.2832L46.0813 49H44.9445V42.7773ZM51.9535 42.7773H53.0082V45.3672H55.932V42.7773H56.9867V49H55.932V46.2402H53.0082V49H51.9535V42.7773ZM62.941 48.2324C62.5504 48.5645 62.1734 48.7988 61.8102 48.9355C61.4508 49.0723 61.0641 49.1406 60.65 49.1406C59.9664 49.1406 59.441 48.9746 59.0738 48.6426C58.7066 48.3066 58.523 47.8789 58.523 47.3594C58.523 47.0547 58.5914 46.7773 58.7281 46.5273C58.8688 46.2734 59.0504 46.0703 59.273 45.918C59.4996 45.7656 59.7535 45.6504 60.0348 45.5723C60.2418 45.5176 60.5543 45.4648 60.9723 45.4141C61.8238 45.3125 62.4508 45.1914 62.8531 45.0508C62.857 44.9062 62.859 44.8145 62.859 44.7754C62.859 44.3457 62.7594 44.043 62.5602 43.8672C62.2906 43.6289 61.8902 43.5098 61.359 43.5098C60.8629 43.5098 60.4957 43.5977 60.2574 43.7734C60.023 43.9453 59.8492 44.252 59.7359 44.6934L58.7047 44.5527C58.7984 44.1113 58.9527 43.7559 59.1676 43.4863C59.3824 43.2129 59.693 43.0039 60.0992 42.8594C60.5055 42.7109 60.9762 42.6367 61.5113 42.6367C62.0426 42.6367 62.4742 42.6992 62.8063 42.8242C63.1383 42.9492 63.3824 43.1074 63.5387 43.2988C63.6949 43.4863 63.8043 43.7246 63.8668 44.0137C63.902 44.1934 63.9195 44.5176 63.9195 44.9863V46.3926C63.9195 47.373 63.941 47.9941 63.984 48.2559C64.0309 48.5137 64.1207 48.7617 64.2535 49H63.152C63.0426 48.7812 62.9723 48.5254 62.941 48.2324ZM62.8531 45.877C62.4703 46.0332 61.8961 46.166 61.1305 46.2754C60.6969 46.3379 60.3902 46.4082 60.2105 46.4863C60.0309 46.5645 59.8922 46.6797 59.7945 46.832C59.6969 46.9805 59.648 47.1465 59.648 47.3301C59.648 47.6113 59.7535 47.8457 59.9645 48.0332C60.1793 48.2207 60.4918 48.3145 60.902 48.3145C61.3082 48.3145 61.6695 48.2266 61.9859 48.0508C62.3023 47.8711 62.5348 47.627 62.6832 47.3184C62.7965 47.0801 62.8531 46.7285 62.8531 46.2637V45.877Z" fill="black"/>
</svg>
