<svg width="720" height="82" viewBox="0 0 720 82" fill="none" xmlns="http://www.w3.org/2000/svg">
<mask id="path-1-inside-1_48_1226" fill="white">
<path d="M0 0H720V82H0V0Z"/>
</mask>
<path d="M0 0H720V82H0V0Z" fill="#F2ED72"/>
<path d="M720 0H722V-4H720V0ZM0 4H720V-4H0V4ZM718 0V82H722V0H718Z" fill="#2E2E2E" mask="url(#path-1-inside-1_48_1226)"/>
<path d="M57.5166 41.9707C57.5166 43.0078 57.3262 43.9248 56.9453 44.7217C56.5645 45.5127 56.0195 46.1748 55.3105 46.708C54.6016 47.2412 53.7402 47.6455 52.7266 47.9209C51.7188 48.1904 50.585 48.3252 49.3252 48.3252C48.0654 48.3252 46.9258 48.1904 45.9062 47.9209C44.8926 47.6455 44.0283 47.2412 43.3135 46.708C42.5986 46.1748 42.0479 45.5127 41.6611 44.7217C41.2744 43.9248 41.0811 43.0078 41.0811 41.9707C41.0811 40.9336 41.2744 40.0195 41.6611 39.2285C42.0479 38.4316 42.5986 37.7666 43.3135 37.2334C44.0283 36.7002 44.8926 36.2988 45.9062 36.0293C46.9258 35.7539 48.0654 35.6162 49.3252 35.6162C50.585 35.6162 51.7188 35.7539 52.7266 36.0293C53.7402 36.2988 54.6016 36.7002 55.3105 37.2334C56.0195 37.7666 56.5645 38.4316 56.9453 39.2285C57.3262 40.0195 57.5166 40.9336 57.5166 41.9707ZM54.2207 41.9707C54.2207 41.5195 54.1475 41.0713 54.001 40.626C53.8604 40.1748 53.6055 39.7705 53.2363 39.4131C52.873 39.0557 52.375 38.7656 51.7422 38.543C51.1094 38.3203 50.3037 38.209 49.3252 38.209C48.6689 38.209 48.0918 38.2617 47.5938 38.3672C47.0957 38.4668 46.665 38.6074 46.3018 38.7891C45.9385 38.9707 45.6338 39.1846 45.3877 39.4307C45.1416 39.6709 44.9453 39.9316 44.7988 40.2129C44.6523 40.4883 44.5469 40.7783 44.4824 41.083C44.4238 41.3818 44.3945 41.6777 44.3945 41.9707C44.3945 42.2695 44.4238 42.5713 44.4824 42.876C44.5469 43.1807 44.6523 43.4736 44.7988 43.7549C44.9453 44.0303 45.1416 44.2881 45.3877 44.5283C45.6338 44.7686 45.9385 44.9795 46.3018 45.1611C46.665 45.3369 47.0957 45.4775 47.5938 45.583C48.0918 45.6826 48.6689 45.7324 49.3252 45.7324C50.3037 45.7324 51.1094 45.6211 51.7422 45.3984C52.375 45.1758 52.873 44.8857 53.2363 44.5283C53.6055 44.1709 53.8604 43.7695 54.001 43.3242C54.1475 42.873 54.2207 42.4219 54.2207 41.9707ZM72.0955 48L63.948 39.7031V48H60.6873V35.9238H64.2293L72.3855 44.2559V35.9238H75.6287V48H72.0955ZM79.608 48V35.9238H82.8688V45.3545H91.6842V48H79.608ZM94.5033 48V35.9238H97.7641V48H94.5033ZM113.16 48L105.013 39.7031V48H101.752V35.9238H105.294L113.45 44.2559V35.9238H116.694V48H113.16ZM120.673 48V35.9238H132.898V38.499H124.021V40.4941H132.441V43.0693H124.021V45.4248H133.021V48H120.673ZM147.504 39.3252C147.275 39.2139 146.973 39.0879 146.598 38.9473C146.223 38.8066 145.799 38.6748 145.324 38.5518C144.849 38.4229 144.334 38.3174 143.777 38.2354C143.221 38.1475 142.649 38.1035 142.063 38.1035C141.595 38.1035 141.193 38.1182 140.859 38.1475C140.531 38.1768 140.253 38.2148 140.024 38.2617C139.802 38.3086 139.623 38.3643 139.488 38.4287C139.359 38.4873 139.26 38.5488 139.189 38.6133C139.119 38.6777 139.072 38.7422 139.049 38.8066C139.031 38.8711 139.022 38.9297 139.022 38.9824C139.022 39.1582 139.11 39.3135 139.286 39.4482C139.462 39.5771 139.702 39.6943 140.007 39.7998C140.311 39.8994 140.666 39.9961 141.07 40.0898C141.474 40.1777 141.902 40.2715 142.353 40.3711C142.81 40.4648 143.279 40.5703 143.76 40.6875C144.246 40.7988 144.715 40.9307 145.166 41.083C145.623 41.2354 146.054 41.4141 146.458 41.6191C146.862 41.8184 147.217 42.0527 147.521 42.3223C147.826 42.5918 148.066 42.9023 148.242 43.2539C148.418 43.6055 148.506 44.0068 148.506 44.458C148.506 45.0381 148.403 45.5361 148.198 45.9521C147.993 46.3682 147.718 46.7197 147.372 47.0068C147.032 47.2939 146.637 47.5254 146.185 47.7012C145.734 47.8711 145.26 48.0029 144.762 48.0967C144.269 48.1904 143.768 48.252 143.259 48.2812C142.755 48.3105 142.274 48.3252 141.817 48.3252C140.622 48.3252 139.514 48.2256 138.495 48.0264C137.481 47.833 136.585 47.5898 135.805 47.2969V44.4141C136.608 44.8594 137.522 45.208 138.548 45.46C139.579 45.7119 140.68 45.8379 141.852 45.8379C142.544 45.8379 143.106 45.8027 143.54 45.7324C143.979 45.6562 144.322 45.5625 144.568 45.4512C144.814 45.334 144.981 45.208 145.069 45.0732C145.157 44.9385 145.201 44.8096 145.201 44.6865C145.201 44.4932 145.113 44.3262 144.937 44.1855C144.762 44.0391 144.521 43.9131 144.217 43.8076C143.912 43.6963 143.557 43.5967 143.153 43.5088C142.749 43.415 142.318 43.3242 141.861 43.2363C141.41 43.1426 140.944 43.043 140.464 42.9375C139.983 42.832 139.514 42.709 139.057 42.5684C138.606 42.4219 138.179 42.2549 137.774 42.0674C137.37 41.874 137.015 41.6484 136.711 41.3906C136.406 41.127 136.166 40.8252 135.99 40.4854C135.814 40.1396 135.726 39.7412 135.726 39.29C135.726 38.7568 135.82 38.2969 136.008 37.9102C136.195 37.5234 136.447 37.1953 136.763 36.9258C137.086 36.6504 137.455 36.4277 137.871 36.2578C138.293 36.0879 138.735 35.9561 139.198 35.8623C139.661 35.7686 140.13 35.7041 140.604 35.6689C141.079 35.6338 141.53 35.6162 141.958 35.6162C142.427 35.6162 142.907 35.6396 143.399 35.6865C143.897 35.7334 144.387 35.8008 144.867 35.8887C145.347 35.9707 145.81 36.0674 146.256 36.1787C146.707 36.29 147.123 36.4072 147.504 36.5303V39.3252ZM163.357 48V42.9639H155.06V48H151.799V35.9238H155.06V40.3184H163.357V35.9238H166.618V48H163.357ZM186.224 41.9707C186.224 43.0078 186.034 43.9248 185.653 44.7217C185.272 45.5127 184.727 46.1748 184.018 46.708C183.309 47.2412 182.448 47.6455 181.434 47.9209C180.426 48.1904 179.292 48.3252 178.033 48.3252C176.773 48.3252 175.633 48.1904 174.614 47.9209C173.6 47.6455 172.736 47.2412 172.021 46.708C171.306 46.1748 170.755 45.5127 170.369 44.7217C169.982 43.9248 169.788 43.0078 169.788 41.9707C169.788 40.9336 169.982 40.0195 170.369 39.2285C170.755 38.4316 171.306 37.7666 172.021 37.2334C172.736 36.7002 173.6 36.2988 174.614 36.0293C175.633 35.7539 176.773 35.6162 178.033 35.6162C179.292 35.6162 180.426 35.7539 181.434 36.0293C182.448 36.2988 183.309 36.7002 184.018 37.2334C184.727 37.7666 185.272 38.4316 185.653 39.2285C186.034 40.0195 186.224 40.9336 186.224 41.9707ZM182.928 41.9707C182.928 41.5195 182.855 41.0713 182.708 40.626C182.568 40.1748 182.313 39.7705 181.944 39.4131C181.58 39.0557 181.082 38.7656 180.45 38.543C179.817 38.3203 179.011 38.209 178.033 38.209C177.376 38.209 176.799 38.2617 176.301 38.3672C175.803 38.4668 175.372 38.6074 175.009 38.7891C174.646 38.9707 174.341 39.1846 174.095 39.4307C173.849 39.6709 173.653 39.9316 173.506 40.2129C173.36 40.4883 173.254 40.7783 173.19 41.083C173.131 41.3818 173.102 41.6777 173.102 41.9707C173.102 42.2695 173.131 42.5713 173.19 42.876C173.254 43.1807 173.36 43.4736 173.506 43.7549C173.653 44.0303 173.849 44.2881 174.095 44.5283C174.341 44.7686 174.646 44.9795 175.009 45.1611C175.372 45.3369 175.803 45.4775 176.301 45.583C176.799 45.6826 177.376 45.7324 178.033 45.7324C179.011 45.7324 179.817 45.6211 180.45 45.3984C181.082 45.1758 181.58 44.8857 181.944 44.5283C182.313 44.1709 182.568 43.7695 182.708 43.3242C182.855 42.873 182.928 42.4219 182.928 41.9707ZM202.965 40.0459C202.965 40.6494 202.877 41.2061 202.701 41.7158C202.526 42.2197 202.241 42.6562 201.849 43.0254C201.462 43.3887 200.958 43.6729 200.337 43.8779C199.716 44.083 198.96 44.1855 198.07 44.1855H192.655V48H189.395V35.9238H198.07C198.96 35.9238 199.716 36.0264 200.337 36.2314C200.958 36.4307 201.462 36.7148 201.849 37.084C202.241 37.4473 202.526 37.8809 202.701 38.3848C202.877 38.8887 202.965 39.4424 202.965 40.0459ZM199.669 40.0986C199.669 39.8174 199.628 39.5771 199.546 39.3779C199.47 39.1729 199.341 39.0059 199.159 38.877C198.978 38.748 198.74 38.6543 198.447 38.5957C198.154 38.5312 197.794 38.499 197.366 38.499H192.655V41.6104H197.366C197.794 41.6104 198.154 41.5869 198.447 41.54C198.74 41.4873 198.978 41.4023 199.159 41.2852C199.341 41.1621 199.47 41.0039 199.546 40.8105C199.628 40.6172 199.669 40.3799 199.669 40.0986Z" fill="#2E2E2E"/>
<path d="M375.517 41.9707C375.517 43.0078 375.326 43.9248 374.945 44.7217C374.564 45.5127 374.02 46.1748 373.311 46.708C372.602 47.2412 371.74 47.6455 370.727 47.9209C369.719 48.1904 368.585 48.3252 367.325 48.3252C366.065 48.3252 364.926 48.1904 363.906 47.9209C362.893 47.6455 362.028 47.2412 361.313 46.708C360.599 46.1748 360.048 45.5127 359.661 44.7217C359.274 43.9248 359.081 43.0078 359.081 41.9707C359.081 40.9336 359.274 40.0195 359.661 39.2285C360.048 38.4316 360.599 37.7666 361.313 37.2334C362.028 36.7002 362.893 36.2988 363.906 36.0293C364.926 35.7539 366.065 35.6162 367.325 35.6162C368.585 35.6162 369.719 35.7539 370.727 36.0293C371.74 36.2988 372.602 36.7002 373.311 37.2334C374.02 37.7666 374.564 38.4316 374.945 39.2285C375.326 40.0195 375.517 40.9336 375.517 41.9707ZM372.221 41.9707C372.221 41.5195 372.147 41.0713 372.001 40.626C371.86 40.1748 371.605 39.7705 371.236 39.4131C370.873 39.0557 370.375 38.7656 369.742 38.543C369.109 38.3203 368.304 38.209 367.325 38.209C366.669 38.209 366.092 38.2617 365.594 38.3672C365.096 38.4668 364.665 38.6074 364.302 38.7891C363.938 38.9707 363.634 39.1846 363.388 39.4307C363.142 39.6709 362.945 39.9316 362.799 40.2129C362.652 40.4883 362.547 40.7783 362.482 41.083C362.424 41.3818 362.395 41.6777 362.395 41.9707C362.395 42.2695 362.424 42.5713 362.482 42.876C362.547 43.1807 362.652 43.4736 362.799 43.7549C362.945 44.0303 363.142 44.2881 363.388 44.5283C363.634 44.7686 363.938 44.9795 364.302 45.1611C364.665 45.3369 365.096 45.4775 365.594 45.583C366.092 45.6826 366.669 45.7324 367.325 45.7324C368.304 45.7324 369.109 45.6211 369.742 45.3984C370.375 45.1758 370.873 44.8857 371.236 44.5283C371.605 44.1709 371.86 43.7695 372.001 43.3242C372.147 42.873 372.221 42.4219 372.221 41.9707ZM390.096 48L381.948 39.7031V48H378.687V35.9238H382.229L390.386 44.2559V35.9238H393.629V48H390.096ZM397.608 48V35.9238H400.869V45.3545H409.684V48H397.608ZM412.503 48V35.9238H415.764V48H412.503ZM431.16 48L423.013 39.7031V48H419.752V35.9238H423.294L431.45 44.2559V35.9238H434.694V48H431.16ZM438.673 48V35.9238H450.898V38.499H442.021V40.4941H450.441V43.0693H442.021V45.4248H451.021V48H438.673ZM465.504 39.3252C465.275 39.2139 464.973 39.0879 464.598 38.9473C464.223 38.8066 463.799 38.6748 463.324 38.5518C462.849 38.4229 462.334 38.3174 461.777 38.2354C461.221 38.1475 460.649 38.1035 460.063 38.1035C459.595 38.1035 459.193 38.1182 458.859 38.1475C458.531 38.1768 458.253 38.2148 458.024 38.2617C457.802 38.3086 457.623 38.3643 457.488 38.4287C457.359 38.4873 457.26 38.5488 457.189 38.6133C457.119 38.6777 457.072 38.7422 457.049 38.8066C457.031 38.8711 457.022 38.9297 457.022 38.9824C457.022 39.1582 457.11 39.3135 457.286 39.4482C457.462 39.5771 457.702 39.6943 458.007 39.7998C458.311 39.8994 458.666 39.9961 459.07 40.0898C459.474 40.1777 459.902 40.2715 460.353 40.3711C460.81 40.4648 461.279 40.5703 461.76 40.6875C462.246 40.7988 462.715 40.9307 463.166 41.083C463.623 41.2354 464.054 41.4141 464.458 41.6191C464.862 41.8184 465.217 42.0527 465.521 42.3223C465.826 42.5918 466.066 42.9023 466.242 43.2539C466.418 43.6055 466.506 44.0068 466.506 44.458C466.506 45.0381 466.403 45.5361 466.198 45.9521C465.993 46.3682 465.718 46.7197 465.372 47.0068C465.032 47.2939 464.637 47.5254 464.185 47.7012C463.734 47.8711 463.26 48.0029 462.762 48.0967C462.269 48.1904 461.768 48.252 461.259 48.2812C460.755 48.3105 460.274 48.3252 459.817 48.3252C458.622 48.3252 457.514 48.2256 456.495 48.0264C455.481 47.833 454.585 47.5898 453.805 47.2969V44.4141C454.608 44.8594 455.522 45.208 456.548 45.46C457.579 45.7119 458.68 45.8379 459.852 45.8379C460.544 45.8379 461.106 45.8027 461.54 45.7324C461.979 45.6562 462.322 45.5625 462.568 45.4512C462.814 45.334 462.981 45.208 463.069 45.0732C463.157 44.9385 463.201 44.8096 463.201 44.6865C463.201 44.4932 463.113 44.3262 462.937 44.1855C462.762 44.0391 462.521 43.9131 462.217 43.8076C461.912 43.6963 461.557 43.5967 461.153 43.5088C460.749 43.415 460.318 43.3242 459.861 43.2363C459.41 43.1426 458.944 43.043 458.464 42.9375C457.983 42.832 457.514 42.709 457.057 42.5684C456.606 42.4219 456.179 42.2549 455.774 42.0674C455.37 41.874 455.015 41.6484 454.711 41.3906C454.406 41.127 454.166 40.8252 453.99 40.4854C453.814 40.1396 453.726 39.7412 453.726 39.29C453.726 38.7568 453.82 38.2969 454.008 37.9102C454.195 37.5234 454.447 37.1953 454.763 36.9258C455.086 36.6504 455.455 36.4277 455.871 36.2578C456.293 36.0879 456.735 35.9561 457.198 35.8623C457.661 35.7686 458.13 35.7041 458.604 35.6689C459.079 35.6338 459.53 35.6162 459.958 35.6162C460.427 35.6162 460.907 35.6396 461.399 35.6865C461.897 35.7334 462.387 35.8008 462.867 35.8887C463.347 35.9707 463.81 36.0674 464.256 36.1787C464.707 36.29 465.123 36.4072 465.504 36.5303V39.3252ZM481.357 48V42.9639H473.06V48H469.799V35.9238H473.06V40.3184H481.357V35.9238H484.618V48H481.357ZM504.224 41.9707C504.224 43.0078 504.034 43.9248 503.653 44.7217C503.272 45.5127 502.727 46.1748 502.018 46.708C501.309 47.2412 500.448 47.6455 499.434 47.9209C498.426 48.1904 497.292 48.3252 496.033 48.3252C494.773 48.3252 493.633 48.1904 492.614 47.9209C491.6 47.6455 490.736 47.2412 490.021 46.708C489.306 46.1748 488.755 45.5127 488.369 44.7217C487.982 43.9248 487.788 43.0078 487.788 41.9707C487.788 40.9336 487.982 40.0195 488.369 39.2285C488.755 38.4316 489.306 37.7666 490.021 37.2334C490.736 36.7002 491.6 36.2988 492.614 36.0293C493.633 35.7539 494.773 35.6162 496.033 35.6162C497.292 35.6162 498.426 35.7539 499.434 36.0293C500.448 36.2988 501.309 36.7002 502.018 37.2334C502.727 37.7666 503.272 38.4316 503.653 39.2285C504.034 40.0195 504.224 40.9336 504.224 41.9707ZM500.928 41.9707C500.928 41.5195 500.855 41.0713 500.708 40.626C500.568 40.1748 500.313 39.7705 499.944 39.4131C499.58 39.0557 499.082 38.7656 498.45 38.543C497.817 38.3203 497.011 38.209 496.033 38.209C495.376 38.209 494.799 38.2617 494.301 38.3672C493.803 38.4668 493.372 38.6074 493.009 38.7891C492.646 38.9707 492.341 39.1846 492.095 39.4307C491.849 39.6709 491.653 39.9316 491.506 40.2129C491.36 40.4883 491.254 40.7783 491.19 41.083C491.131 41.3818 491.102 41.6777 491.102 41.9707C491.102 42.2695 491.131 42.5713 491.19 42.876C491.254 43.1807 491.36 43.4736 491.506 43.7549C491.653 44.0303 491.849 44.2881 492.095 44.5283C492.341 44.7686 492.646 44.9795 493.009 45.1611C493.372 45.3369 493.803 45.4775 494.301 45.583C494.799 45.6826 495.376 45.7324 496.033 45.7324C497.011 45.7324 497.817 45.6211 498.45 45.3984C499.082 45.1758 499.58 44.8857 499.944 44.5283C500.313 44.1709 500.568 43.7695 500.708 43.3242C500.855 42.873 500.928 42.4219 500.928 41.9707ZM520.965 40.0459C520.965 40.6494 520.877 41.2061 520.701 41.7158C520.526 42.2197 520.241 42.6562 519.849 43.0254C519.462 43.3887 518.958 43.6729 518.337 43.8779C517.716 44.083 516.96 44.1855 516.07 44.1855H510.655V48H507.395V35.9238H516.07C516.96 35.9238 517.716 36.0264 518.337 36.2314C518.958 36.4307 519.462 36.7148 519.849 37.084C520.241 37.4473 520.526 37.8809 520.701 38.3848C520.877 38.8887 520.965 39.4424 520.965 40.0459ZM517.669 40.0986C517.669 39.8174 517.628 39.5771 517.546 39.3779C517.47 39.1729 517.341 39.0059 517.159 38.877C516.978 38.748 516.74 38.6543 516.447 38.5957C516.154 38.5312 515.794 38.499 515.366 38.499H510.655V41.6104H515.366C515.794 41.6104 516.154 41.5869 516.447 41.54C516.74 41.4873 516.978 41.4023 517.159 41.2852C517.341 41.1621 517.47 41.0039 517.546 40.8105C517.628 40.6172 517.669 40.3799 517.669 40.0986Z" fill="#2E2E2E"/>
</svg>
