<svg width="720" height="82" viewBox="0 0 720 82" fill="none" xmlns="http://www.w3.org/2000/svg">
<mask id="path-1-inside-1_48_1230" fill="white">
<path d="M0 0H720V82H0V0Z"/>
</mask>
<path d="M0 0H720V82H0V0Z" fill="#30723F"/>
<path d="M0 0V-4H-2V0H0ZM0 4H720V-4H0V4ZM2 82V0H-2V82H2Z" fill="#2E2E2E" mask="url(#path-1-inside-1_48_1230)"/>
<path d="M67.8467 41.9707C67.8467 43.0078 67.6562 43.9248 67.2754 44.7217C66.8945 45.5127 66.3496 46.1748 65.6406 46.708C64.9316 47.2412 64.0703 47.6455 63.0566 47.9209C62.0488 48.1904 60.915 48.3252 59.6553 48.3252C58.3955 48.3252 57.2559 48.1904 56.2363 47.9209C55.2227 47.6455 54.3584 47.2412 53.6436 46.708C52.9287 46.1748 52.3779 45.5127 51.9912 44.7217C51.6045 43.9248 51.4111 43.0078 51.4111 41.9707C51.4111 40.9336 51.6045 40.0195 51.9912 39.2285C52.3779 38.4316 52.9287 37.7666 53.6436 37.2334C54.3584 36.7002 55.2227 36.2988 56.2363 36.0293C57.2559 35.7539 58.3955 35.6162 59.6553 35.6162C60.915 35.6162 62.0488 35.7539 63.0566 36.0293C64.0703 36.2988 64.9316 36.7002 65.6406 37.2334C66.3496 37.7666 66.8945 38.4316 67.2754 39.2285C67.6562 40.0195 67.8467 40.9336 67.8467 41.9707ZM64.5508 41.9707C64.5508 41.5195 64.4775 41.0713 64.3311 40.626C64.1904 40.1748 63.9355 39.7705 63.5664 39.4131C63.2031 39.0557 62.7051 38.7656 62.0723 38.543C61.4395 38.3203 60.6338 38.209 59.6553 38.209C58.999 38.209 58.4219 38.2617 57.9238 38.3672C57.4258 38.4668 56.9951 38.6074 56.6318 38.7891C56.2686 38.9707 55.9639 39.1846 55.7178 39.4307C55.4717 39.6709 55.2754 39.9316 55.1289 40.2129C54.9824 40.4883 54.877 40.7783 54.8125 41.083C54.7539 41.3818 54.7246 41.6777 54.7246 41.9707C54.7246 42.2695 54.7539 42.5713 54.8125 42.876C54.877 43.1807 54.9824 43.4736 55.1289 43.7549C55.2754 44.0303 55.4717 44.2881 55.7178 44.5283C55.9639 44.7686 56.2686 44.9795 56.6318 45.1611C56.9951 45.3369 57.4258 45.4775 57.9238 45.583C58.4219 45.6826 58.999 45.7324 59.6553 45.7324C60.6338 45.7324 61.4395 45.6211 62.0723 45.3984C62.7051 45.1758 63.2031 44.8857 63.5664 44.5283C63.9355 44.1709 64.1904 43.7695 64.3311 43.3242C64.4775 42.873 64.5508 42.4219 64.5508 41.9707ZM82.4256 48L74.2781 39.7031V48H71.0174V35.9238H74.5594L82.7156 44.2559V35.9238H85.9588V48H82.4256ZM89.9381 48V35.9238H93.1988V45.3545H102.014V48H89.9381ZM104.833 48V35.9238H108.094V48H104.833ZM123.49 48L115.343 39.7031V48H112.082V35.9238H115.624L123.78 44.2559V35.9238H127.024V48H123.49ZM131.003 48V35.9238H143.229V38.499H134.352V40.4941H142.771V43.0693H134.352V45.4248H143.352V48H131.003ZM157.834 39.3252C157.605 39.2139 157.304 39.0879 156.929 38.9473C156.554 38.8066 156.129 38.6748 155.654 38.5518C155.179 38.4229 154.664 38.3174 154.107 38.2354C153.551 38.1475 152.979 38.1035 152.393 38.1035C151.925 38.1035 151.523 38.1182 151.189 38.1475C150.861 38.1768 150.583 38.2148 150.354 38.2617C150.132 38.3086 149.953 38.3643 149.818 38.4287C149.689 38.4873 149.59 38.5488 149.519 38.6133C149.449 38.6777 149.402 38.7422 149.379 38.8066C149.361 38.8711 149.352 38.9297 149.352 38.9824C149.352 39.1582 149.44 39.3135 149.616 39.4482C149.792 39.5771 150.032 39.6943 150.337 39.7998C150.641 39.8994 150.996 39.9961 151.4 40.0898C151.804 40.1777 152.232 40.2715 152.683 40.3711C153.14 40.4648 153.609 40.5703 154.09 40.6875C154.576 40.7988 155.045 40.9307 155.496 41.083C155.953 41.2354 156.384 41.4141 156.788 41.6191C157.192 41.8184 157.547 42.0527 157.851 42.3223C158.156 42.5918 158.396 42.9023 158.572 43.2539C158.748 43.6055 158.836 44.0068 158.836 44.458C158.836 45.0381 158.733 45.5361 158.528 45.9521C158.323 46.3682 158.048 46.7197 157.702 47.0068C157.362 47.2939 156.967 47.5254 156.515 47.7012C156.064 47.8711 155.59 48.0029 155.092 48.0967C154.599 48.1904 154.098 48.252 153.589 48.2812C153.085 48.3105 152.604 48.3252 152.147 48.3252C150.952 48.3252 149.845 48.2256 148.825 48.0264C147.811 47.833 146.915 47.5898 146.136 47.2969V44.4141C146.938 44.8594 147.852 45.208 148.878 45.46C149.909 45.7119 151.011 45.8379 152.182 45.8379C152.874 45.8379 153.436 45.8027 153.87 45.7324C154.309 45.6562 154.652 45.5625 154.898 45.4512C155.144 45.334 155.311 45.208 155.399 45.0732C155.487 44.9385 155.531 44.8096 155.531 44.6865C155.531 44.4932 155.443 44.3262 155.267 44.1855C155.092 44.0391 154.851 43.9131 154.547 43.8076C154.242 43.6963 153.887 43.5967 153.483 43.5088C153.079 43.415 152.648 43.3242 152.191 43.2363C151.74 43.1426 151.274 43.043 150.794 42.9375C150.313 42.832 149.845 42.709 149.387 42.5684C148.936 42.4219 148.509 42.2549 148.104 42.0674C147.7 41.874 147.346 41.6484 147.041 41.3906C146.736 41.127 146.496 40.8252 146.32 40.4854C146.144 40.1396 146.056 39.7412 146.056 39.29C146.056 38.7568 146.15 38.2969 146.338 37.9102C146.525 37.5234 146.777 37.1953 147.094 36.9258C147.416 36.6504 147.785 36.4277 148.201 36.2578C148.623 36.0879 149.065 35.9561 149.528 35.8623C149.991 35.7686 150.46 35.7041 150.934 35.6689C151.409 35.6338 151.86 35.6162 152.288 35.6162C152.757 35.6162 153.237 35.6396 153.729 35.6865C154.227 35.7334 154.717 35.8008 155.197 35.8887C155.678 35.9707 156.14 36.0674 156.586 36.1787C157.037 36.29 157.453 36.4072 157.834 36.5303V39.3252ZM173.687 48V42.9639H165.39V48H162.129V35.9238H165.39V40.3184H173.687V35.9238H176.948V48H173.687ZM196.554 41.9707C196.554 43.0078 196.364 43.9248 195.983 44.7217C195.602 45.5127 195.057 46.1748 194.348 46.708C193.639 47.2412 192.778 47.6455 191.764 47.9209C190.756 48.1904 189.622 48.3252 188.363 48.3252C187.103 48.3252 185.963 48.1904 184.944 47.9209C183.93 47.6455 183.066 47.2412 182.351 46.708C181.636 46.1748 181.085 45.5127 180.699 44.7217C180.312 43.9248 180.119 43.0078 180.119 41.9707C180.119 40.9336 180.312 40.0195 180.699 39.2285C181.085 38.4316 181.636 37.7666 182.351 37.2334C183.066 36.7002 183.93 36.2988 184.944 36.0293C185.963 35.7539 187.103 35.6162 188.363 35.6162C189.622 35.6162 190.756 35.7539 191.764 36.0293C192.778 36.2988 193.639 36.7002 194.348 37.2334C195.057 37.7666 195.602 38.4316 195.983 39.2285C196.364 40.0195 196.554 40.9336 196.554 41.9707ZM193.258 41.9707C193.258 41.5195 193.185 41.0713 193.038 40.626C192.898 40.1748 192.643 39.7705 192.274 39.4131C191.911 39.0557 191.413 38.7656 190.78 38.543C190.147 38.3203 189.341 38.209 188.363 38.209C187.706 38.209 187.129 38.2617 186.631 38.3672C186.133 38.4668 185.703 38.6074 185.339 38.7891C184.976 38.9707 184.671 39.1846 184.425 39.4307C184.179 39.6709 183.983 39.9316 183.836 40.2129C183.69 40.4883 183.584 40.7783 183.52 41.083C183.461 41.3818 183.432 41.6777 183.432 41.9707C183.432 42.2695 183.461 42.5713 183.52 42.876C183.584 43.1807 183.69 43.4736 183.836 43.7549C183.983 44.0303 184.179 44.2881 184.425 44.5283C184.671 44.7686 184.976 44.9795 185.339 45.1611C185.703 45.3369 186.133 45.4775 186.631 45.583C187.129 45.6826 187.706 45.7324 188.363 45.7324C189.341 45.7324 190.147 45.6211 190.78 45.3984C191.413 45.1758 191.911 44.8857 192.274 44.5283C192.643 44.1709 192.898 43.7695 193.038 43.3242C193.185 42.873 193.258 42.4219 193.258 41.9707ZM213.295 40.0459C213.295 40.6494 213.207 41.2061 213.031 41.7158C212.856 42.2197 212.571 42.6562 212.179 43.0254C211.792 43.3887 211.288 43.6729 210.667 43.8779C210.046 44.083 209.29 44.1855 208.4 44.1855H202.986V48H199.725V35.9238H208.4C209.29 35.9238 210.046 36.0264 210.667 36.2314C211.288 36.4307 211.792 36.7148 212.179 37.084C212.571 37.4473 212.856 37.8809 213.031 38.3848C213.207 38.8887 213.295 39.4424 213.295 40.0459ZM209.999 40.0986C209.999 39.8174 209.958 39.5771 209.876 39.3779C209.8 39.1729 209.671 39.0059 209.489 38.877C209.308 38.748 209.071 38.6543 208.778 38.5957C208.485 38.5312 208.124 38.499 207.696 38.499H202.986V41.6104H207.696C208.124 41.6104 208.485 41.5869 208.778 41.54C209.071 41.4873 209.308 41.4023 209.489 41.2852C209.671 41.1621 209.8 41.0039 209.876 40.8105C209.958 40.6172 209.999 40.3799 209.999 40.0986Z" fill="#2E2E2E"/>
<path d="M271.677 41.9707C271.677 43.0078 271.486 43.9248 271.105 44.7217C270.725 45.5127 270.18 46.1748 269.471 46.708C268.762 47.2412 267.9 47.6455 266.887 47.9209C265.879 48.1904 264.745 48.3252 263.485 48.3252C262.226 48.3252 261.086 48.1904 260.066 47.9209C259.053 47.6455 258.188 47.2412 257.474 46.708C256.759 46.1748 256.208 45.5127 255.821 44.7217C255.435 43.9248 255.241 43.0078 255.241 41.9707C255.241 40.9336 255.435 40.0195 255.821 39.2285C256.208 38.4316 256.759 37.7666 257.474 37.2334C258.188 36.7002 259.053 36.2988 260.066 36.0293C261.086 35.7539 262.226 35.6162 263.485 35.6162C264.745 35.6162 265.879 35.7539 266.887 36.0293C267.9 36.2988 268.762 36.7002 269.471 37.2334C270.18 37.7666 270.725 38.4316 271.105 39.2285C271.486 40.0195 271.677 40.9336 271.677 41.9707ZM268.381 41.9707C268.381 41.5195 268.308 41.0713 268.161 40.626C268.021 40.1748 267.766 39.7705 267.396 39.4131C267.033 39.0557 266.535 38.7656 265.902 38.543C265.27 38.3203 264.464 38.209 263.485 38.209C262.829 38.209 262.252 38.2617 261.754 38.3672C261.256 38.4668 260.825 38.6074 260.462 38.7891C260.099 38.9707 259.794 39.1846 259.548 39.4307C259.302 39.6709 259.105 39.9316 258.959 40.2129C258.812 40.4883 258.707 40.7783 258.643 41.083C258.584 41.3818 258.555 41.6777 258.555 41.9707C258.555 42.2695 258.584 42.5713 258.643 42.876C258.707 43.1807 258.812 43.4736 258.959 43.7549C259.105 44.0303 259.302 44.2881 259.548 44.5283C259.794 44.7686 260.099 44.9795 260.462 45.1611C260.825 45.3369 261.256 45.4775 261.754 45.583C262.252 45.6826 262.829 45.7324 263.485 45.7324C264.464 45.7324 265.27 45.6211 265.902 45.3984C266.535 45.1758 267.033 44.8857 267.396 44.5283C267.766 44.1709 268.021 43.7695 268.161 43.3242C268.308 42.873 268.381 42.4219 268.381 41.9707ZM286.256 48L278.108 39.7031V48H274.847V35.9238H278.389L286.546 44.2559V35.9238H289.789V48H286.256ZM293.768 48V35.9238H297.029V45.3545H305.844V48H293.768ZM308.663 48V35.9238H311.924V48H308.663ZM327.321 48L319.173 39.7031V48H315.912V35.9238H319.454L327.611 44.2559V35.9238H330.854V48H327.321ZM334.833 48V35.9238H347.059V38.499H338.182V40.4941H346.602V43.0693H338.182V45.4248H347.182V48H334.833ZM361.664 39.3252C361.435 39.2139 361.134 39.0879 360.759 38.9473C360.384 38.8066 359.959 38.6748 359.484 38.5518C359.01 38.4229 358.494 38.3174 357.937 38.2354C357.381 38.1475 356.809 38.1035 356.223 38.1035C355.755 38.1035 355.353 38.1182 355.019 38.1475C354.691 38.1768 354.413 38.2148 354.184 38.2617C353.962 38.3086 353.783 38.3643 353.648 38.4287C353.519 38.4873 353.42 38.5488 353.349 38.6133C353.279 38.6777 353.232 38.7422 353.209 38.8066C353.191 38.8711 353.182 38.9297 353.182 38.9824C353.182 39.1582 353.27 39.3135 353.446 39.4482C353.622 39.5771 353.862 39.6943 354.167 39.7998C354.471 39.8994 354.826 39.9961 355.23 40.0898C355.635 40.1777 356.062 40.2715 356.513 40.3711C356.971 40.4648 357.439 40.5703 357.92 40.6875C358.406 40.7988 358.875 40.9307 359.326 41.083C359.783 41.2354 360.214 41.4141 360.618 41.6191C361.022 41.8184 361.377 42.0527 361.681 42.3223C361.986 42.5918 362.226 42.9023 362.402 43.2539C362.578 43.6055 362.666 44.0068 362.666 44.458C362.666 45.0381 362.563 45.5361 362.358 45.9521C362.153 46.3682 361.878 46.7197 361.532 47.0068C361.192 47.2939 360.797 47.5254 360.346 47.7012C359.894 47.8711 359.42 48.0029 358.922 48.0967C358.429 48.1904 357.929 48.252 357.419 48.2812C356.915 48.3105 356.434 48.3252 355.977 48.3252C354.782 48.3252 353.675 48.2256 352.655 48.0264C351.641 47.833 350.745 47.5898 349.966 47.2969V44.4141C350.768 44.8594 351.682 45.208 352.708 45.46C353.739 45.7119 354.841 45.8379 356.012 45.8379C356.704 45.8379 357.266 45.8027 357.7 45.7324C358.139 45.6562 358.482 45.5625 358.728 45.4512C358.974 45.334 359.141 45.208 359.229 45.0732C359.317 44.9385 359.361 44.8096 359.361 44.6865C359.361 44.4932 359.273 44.3262 359.097 44.1855C358.922 44.0391 358.681 43.9131 358.377 43.8076C358.072 43.6963 357.718 43.5967 357.313 43.5088C356.909 43.415 356.478 43.3242 356.021 43.2363C355.57 43.1426 355.104 43.043 354.624 42.9375C354.143 42.832 353.675 42.709 353.218 42.5684C352.766 42.4219 352.339 42.2549 351.934 42.0674C351.53 41.874 351.176 41.6484 350.871 41.3906C350.566 41.127 350.326 40.8252 350.15 40.4854C349.974 40.1396 349.887 39.7412 349.887 39.29C349.887 38.7568 349.98 38.2969 350.168 37.9102C350.355 37.5234 350.607 37.1953 350.924 36.9258C351.246 36.6504 351.615 36.4277 352.031 36.2578C352.453 36.0879 352.895 35.9561 353.358 35.8623C353.821 35.7686 354.29 35.7041 354.764 35.6689C355.239 35.6338 355.69 35.6162 356.118 35.6162C356.587 35.6162 357.067 35.6396 357.559 35.6865C358.057 35.7334 358.547 35.8008 359.027 35.8887C359.508 35.9707 359.971 36.0674 360.416 36.1787C360.867 36.29 361.283 36.4072 361.664 36.5303V39.3252ZM377.517 48V42.9639H369.22V48H365.96V35.9238H369.22V40.3184H377.517V35.9238H380.778V48H377.517ZM400.384 41.9707C400.384 43.0078 400.194 43.9248 399.813 44.7217C399.432 45.5127 398.887 46.1748 398.178 46.708C397.469 47.2412 396.608 47.6455 395.594 47.9209C394.586 48.1904 393.453 48.3252 392.193 48.3252C390.933 48.3252 389.793 48.1904 388.774 47.9209C387.76 47.6455 386.896 47.2412 386.181 46.708C385.466 46.1748 384.915 45.5127 384.529 44.7217C384.142 43.9248 383.949 43.0078 383.949 41.9707C383.949 40.9336 384.142 40.0195 384.529 39.2285C384.915 38.4316 385.466 37.7666 386.181 37.2334C386.896 36.7002 387.76 36.2988 388.774 36.0293C389.793 35.7539 390.933 35.6162 392.193 35.6162C393.453 35.6162 394.586 35.7539 395.594 36.0293C396.608 36.2988 397.469 36.7002 398.178 37.2334C398.887 37.7666 399.432 38.4316 399.813 39.2285C400.194 40.0195 400.384 40.9336 400.384 41.9707ZM397.088 41.9707C397.088 41.5195 397.015 41.0713 396.869 40.626C396.728 40.1748 396.473 39.7705 396.104 39.4131C395.741 39.0557 395.243 38.7656 394.61 38.543C393.977 38.3203 393.171 38.209 392.193 38.209C391.537 38.209 390.959 38.2617 390.461 38.3672C389.963 38.4668 389.533 38.6074 389.169 38.7891C388.806 38.9707 388.501 39.1846 388.255 39.4307C388.009 39.6709 387.813 39.9316 387.666 40.2129C387.52 40.4883 387.414 40.7783 387.35 41.083C387.291 41.3818 387.262 41.6777 387.262 41.9707C387.262 42.2695 387.291 42.5713 387.35 42.876C387.414 43.1807 387.52 43.4736 387.666 43.7549C387.813 44.0303 388.009 44.2881 388.255 44.5283C388.501 44.7686 388.806 44.9795 389.169 45.1611C389.533 45.3369 389.963 45.4775 390.461 45.583C390.959 45.6826 391.537 45.7324 392.193 45.7324C393.171 45.7324 393.977 45.6211 394.61 45.3984C395.243 45.1758 395.741 44.8857 396.104 44.5283C396.473 44.1709 396.728 43.7695 396.869 43.3242C397.015 42.873 397.088 42.4219 397.088 41.9707ZM417.125 40.0459C417.125 40.6494 417.037 41.2061 416.862 41.7158C416.686 42.2197 416.402 42.6562 416.009 43.0254C415.622 43.3887 415.118 43.6729 414.497 43.8779C413.876 44.083 413.12 44.1855 412.23 44.1855H406.816V48H403.555V35.9238H412.23C413.12 35.9238 413.876 36.0264 414.497 36.2314C415.118 36.4307 415.622 36.7148 416.009 37.084C416.402 37.4473 416.686 37.8809 416.862 38.3848C417.037 38.8887 417.125 39.4424 417.125 40.0459ZM413.829 40.0986C413.829 39.8174 413.788 39.5771 413.706 39.3779C413.63 39.1729 413.501 39.0059 413.32 38.877C413.138 38.748 412.901 38.6543 412.608 38.5957C412.315 38.5312 411.954 38.499 411.527 38.499H406.816V41.6104H411.527C411.954 41.6104 412.315 41.5869 412.608 41.54C412.901 41.4873 413.138 41.4023 413.32 41.2852C413.501 41.1621 413.63 41.0039 413.706 40.8105C413.788 40.6172 413.829 40.3799 413.829 40.0986Z" fill="#2E2E2E"/>
<path d="M475.507 41.9707C475.507 43.0078 475.316 43.9248 474.936 44.7217C474.555 45.5127 474.01 46.1748 473.301 46.708C472.592 47.2412 471.73 47.6455 470.717 47.9209C469.709 48.1904 468.575 48.3252 467.315 48.3252C466.056 48.3252 464.916 48.1904 463.896 47.9209C462.883 47.6455 462.019 47.2412 461.304 46.708C460.589 46.1748 460.038 45.5127 459.651 44.7217C459.265 43.9248 459.071 43.0078 459.071 41.9707C459.071 40.9336 459.265 40.0195 459.651 39.2285C460.038 38.4316 460.589 37.7666 461.304 37.2334C462.019 36.7002 462.883 36.2988 463.896 36.0293C464.916 35.7539 466.056 35.6162 467.315 35.6162C468.575 35.6162 469.709 35.7539 470.717 36.0293C471.73 36.2988 472.592 36.7002 473.301 37.2334C474.01 37.7666 474.555 38.4316 474.936 39.2285C475.316 40.0195 475.507 40.9336 475.507 41.9707ZM472.211 41.9707C472.211 41.5195 472.138 41.0713 471.991 40.626C471.851 40.1748 471.596 39.7705 471.227 39.4131C470.863 39.0557 470.365 38.7656 469.732 38.543C469.1 38.3203 468.294 38.209 467.315 38.209C466.659 38.209 466.082 38.2617 465.584 38.3672C465.086 38.4668 464.655 38.6074 464.292 38.7891C463.929 38.9707 463.624 39.1846 463.378 39.4307C463.132 39.6709 462.936 39.9316 462.789 40.2129C462.643 40.4883 462.537 40.7783 462.473 41.083C462.414 41.3818 462.385 41.6777 462.385 41.9707C462.385 42.2695 462.414 42.5713 462.473 42.876C462.537 43.1807 462.643 43.4736 462.789 43.7549C462.936 44.0303 463.132 44.2881 463.378 44.5283C463.624 44.7686 463.929 44.9795 464.292 45.1611C464.655 45.3369 465.086 45.4775 465.584 45.583C466.082 45.6826 466.659 45.7324 467.315 45.7324C468.294 45.7324 469.1 45.6211 469.732 45.3984C470.365 45.1758 470.863 44.8857 471.227 44.5283C471.596 44.1709 471.851 43.7695 471.991 43.3242C472.138 42.873 472.211 42.4219 472.211 41.9707ZM490.086 48L481.938 39.7031V48H478.678V35.9238H482.22L490.376 44.2559V35.9238H493.619V48H490.086ZM497.598 48V35.9238H500.859V45.3545H509.674V48H497.598ZM512.494 48V35.9238H515.754V48H512.494ZM531.151 48L523.003 39.7031V48H519.742V35.9238H523.284L531.441 44.2559V35.9238H534.684V48H531.151ZM538.663 48V35.9238H550.889V38.499H542.012V40.4941H550.432V43.0693H542.012V45.4248H551.012V48H538.663ZM565.494 39.3252C565.265 39.2139 564.964 39.0879 564.589 38.9473C564.214 38.8066 563.789 38.6748 563.314 38.5518C562.84 38.4229 562.324 38.3174 561.767 38.2354C561.211 38.1475 560.639 38.1035 560.054 38.1035C559.585 38.1035 559.183 38.1182 558.849 38.1475C558.521 38.1768 558.243 38.2148 558.014 38.2617C557.792 38.3086 557.613 38.3643 557.478 38.4287C557.349 38.4873 557.25 38.5488 557.179 38.6133C557.109 38.6777 557.062 38.7422 557.039 38.8066C557.021 38.8711 557.012 38.9297 557.012 38.9824C557.012 39.1582 557.1 39.3135 557.276 39.4482C557.452 39.5771 557.692 39.6943 557.997 39.7998C558.302 39.8994 558.656 39.9961 559.06 40.0898C559.465 40.1777 559.892 40.2715 560.344 40.3711C560.801 40.4648 561.269 40.5703 561.75 40.6875C562.236 40.7988 562.705 40.9307 563.156 41.083C563.613 41.2354 564.044 41.4141 564.448 41.6191C564.852 41.8184 565.207 42.0527 565.512 42.3223C565.816 42.5918 566.056 42.9023 566.232 43.2539C566.408 43.6055 566.496 44.0068 566.496 44.458C566.496 45.0381 566.393 45.5361 566.188 45.9521C565.983 46.3682 565.708 46.7197 565.362 47.0068C565.022 47.2939 564.627 47.5254 564.176 47.7012C563.724 47.8711 563.25 48.0029 562.752 48.0967C562.26 48.1904 561.759 48.252 561.249 48.2812C560.745 48.3105 560.264 48.3252 559.807 48.3252C558.612 48.3252 557.505 48.2256 556.485 48.0264C555.471 47.833 554.575 47.5898 553.796 47.2969V44.4141C554.598 44.8594 555.512 45.208 556.538 45.46C557.569 45.7119 558.671 45.8379 559.843 45.8379C560.534 45.8379 561.096 45.8027 561.53 45.7324C561.97 45.6562 562.312 45.5625 562.558 45.4512C562.804 45.334 562.971 45.208 563.059 45.0732C563.147 44.9385 563.191 44.8096 563.191 44.6865C563.191 44.4932 563.103 44.3262 562.928 44.1855C562.752 44.0391 562.512 43.9131 562.207 43.8076C561.902 43.6963 561.548 43.5967 561.143 43.5088C560.739 43.415 560.308 43.3242 559.851 43.2363C559.4 43.1426 558.934 43.043 558.454 42.9375C557.973 42.832 557.505 42.709 557.048 42.5684C556.596 42.4219 556.169 42.2549 555.764 42.0674C555.36 41.874 555.006 41.6484 554.701 41.3906C554.396 41.127 554.156 40.8252 553.98 40.4854C553.804 40.1396 553.717 39.7412 553.717 39.29C553.717 38.7568 553.81 38.2969 553.998 37.9102C554.185 37.5234 554.437 37.1953 554.754 36.9258C555.076 36.6504 555.445 36.4277 555.861 36.2578C556.283 36.0879 556.725 35.9561 557.188 35.8623C557.651 35.7686 558.12 35.7041 558.595 35.6689C559.069 35.6338 559.52 35.6162 559.948 35.6162C560.417 35.6162 560.897 35.6396 561.389 35.6865C561.887 35.7334 562.377 35.8008 562.857 35.8887C563.338 35.9707 563.801 36.0674 564.246 36.1787C564.697 36.29 565.113 36.4072 565.494 36.5303V39.3252ZM581.347 48V42.9639H573.05V48H569.79V35.9238H573.05V40.3184H581.347V35.9238H584.608V48H581.347ZM604.214 41.9707C604.214 43.0078 604.024 43.9248 603.643 44.7217C603.262 45.5127 602.717 46.1748 602.008 46.708C601.299 47.2412 600.438 47.6455 599.424 47.9209C598.416 48.1904 597.283 48.3252 596.023 48.3252C594.763 48.3252 593.623 48.1904 592.604 47.9209C591.59 47.6455 590.726 47.2412 590.011 46.708C589.296 46.1748 588.746 45.5127 588.359 44.7217C587.972 43.9248 587.779 43.0078 587.779 41.9707C587.779 40.9336 587.972 40.0195 588.359 39.2285C588.746 38.4316 589.296 37.7666 590.011 37.2334C590.726 36.7002 591.59 36.2988 592.604 36.0293C593.623 35.7539 594.763 35.6162 596.023 35.6162C597.283 35.6162 598.416 35.7539 599.424 36.0293C600.438 36.2988 601.299 36.7002 602.008 37.2334C602.717 37.7666 603.262 38.4316 603.643 39.2285C604.024 40.0195 604.214 40.9336 604.214 41.9707ZM600.918 41.9707C600.918 41.5195 600.845 41.0713 600.699 40.626C600.558 40.1748 600.303 39.7705 599.934 39.4131C599.571 39.0557 599.073 38.7656 598.44 38.543C597.807 38.3203 597.001 38.209 596.023 38.209C595.367 38.209 594.789 38.2617 594.291 38.3672C593.793 38.4668 593.363 38.6074 592.999 38.7891C592.636 38.9707 592.331 39.1846 592.085 39.4307C591.839 39.6709 591.643 39.9316 591.496 40.2129C591.35 40.4883 591.245 40.7783 591.18 41.083C591.121 41.3818 591.092 41.6777 591.092 41.9707C591.092 42.2695 591.121 42.5713 591.18 42.876C591.245 43.1807 591.35 43.4736 591.496 43.7549C591.643 44.0303 591.839 44.2881 592.085 44.5283C592.331 44.7686 592.636 44.9795 592.999 45.1611C593.363 45.3369 593.793 45.4775 594.291 45.583C594.789 45.6826 595.367 45.7324 596.023 45.7324C597.001 45.7324 597.807 45.6211 598.44 45.3984C599.073 45.1758 599.571 44.8857 599.934 44.5283C600.303 44.1709 600.558 43.7695 600.699 43.3242C600.845 42.873 600.918 42.4219 600.918 41.9707ZM620.955 40.0459C620.955 40.6494 620.867 41.2061 620.692 41.7158C620.516 42.2197 620.232 42.6562 619.839 43.0254C619.452 43.3887 618.948 43.6729 618.327 43.8779C617.706 44.083 616.95 44.1855 616.06 44.1855H610.646V48H607.385V35.9238H616.06C616.95 35.9238 617.706 36.0264 618.327 36.2314C618.948 36.4307 619.452 36.7148 619.839 37.084C620.232 37.4473 620.516 37.8809 620.692 38.3848C620.867 38.8887 620.955 39.4424 620.955 40.0459ZM617.659 40.0986C617.659 39.8174 617.618 39.5771 617.536 39.3779C617.46 39.1729 617.331 39.0059 617.15 38.877C616.968 38.748 616.731 38.6543 616.438 38.5957C616.145 38.5312 615.784 38.499 615.357 38.499H610.646V41.6104H615.357C615.784 41.6104 616.145 41.5869 616.438 41.54C616.731 41.4873 616.968 41.4023 617.15 41.2852C617.331 41.1621 617.46 41.0039 617.536 40.8105C617.618 40.6172 617.659 40.3799 617.659 40.0986Z" fill="#2E2E2E"/>
</svg>
