<svg width="78" height="64" viewBox="0 0 78 64" fill="none" xmlns="http://www.w3.org/2000/svg">
<path d="M24.4859 49V40.4102H27.7086C28.3648 40.4102 28.8902 40.498 29.2848 40.6738C29.6832 40.8457 29.9937 41.1133 30.2164 41.4766C30.443 41.8359 30.5562 42.2129 30.5562 42.6074C30.5562 42.9746 30.4566 43.3203 30.2574 43.6445C30.0582 43.9688 29.7574 44.2305 29.3551 44.4297C29.8746 44.582 30.273 44.8418 30.5504 45.209C30.8316 45.5762 30.9723 46.0098 30.9723 46.5098C30.9723 46.9121 30.8863 47.2871 30.7145 47.6348C30.5465 47.9785 30.3375 48.2441 30.0875 48.4316C29.8375 48.6191 29.523 48.7617 29.1441 48.8594C28.7691 48.9531 28.3082 49 27.7613 49H24.4859ZM25.6227 44.0195H27.4801C27.984 44.0195 28.3453 43.9863 28.5641 43.9199C28.8531 43.834 29.0699 43.6914 29.2145 43.4922C29.3629 43.293 29.4371 43.043 29.4371 42.7422C29.4371 42.457 29.3687 42.207 29.232 41.9922C29.0953 41.7734 28.9 41.625 28.6461 41.5469C28.3922 41.4648 27.9566 41.4238 27.3395 41.4238H25.6227V44.0195ZM25.6227 47.9863H27.7613C28.1285 47.9863 28.3863 47.9727 28.5348 47.9453C28.7965 47.8984 29.0152 47.8203 29.191 47.7109C29.3668 47.6016 29.5113 47.4434 29.6246 47.2363C29.7379 47.0254 29.7945 46.7832 29.7945 46.5098C29.7945 46.1895 29.7125 45.9121 29.5484 45.6777C29.3844 45.4395 29.1559 45.2734 28.8629 45.1797C28.5738 45.082 28.1559 45.0332 27.609 45.0332H25.6227V47.9863ZM32.3094 45.8887C32.3094 44.7363 32.6297 43.8828 33.2703 43.3281C33.8055 42.8672 34.4578 42.6367 35.2273 42.6367C36.0828 42.6367 36.782 42.918 37.325 43.4805C37.868 44.0391 38.1395 44.8125 38.1395 45.8008C38.1395 46.6016 38.0184 47.2324 37.7762 47.6934C37.5379 48.1504 37.1883 48.5059 36.7273 48.7598C36.2703 49.0137 35.7703 49.1406 35.2273 49.1406C34.3562 49.1406 33.6512 48.8613 33.1121 48.3027C32.577 47.7441 32.3094 46.9395 32.3094 45.8887ZM33.3934 45.8887C33.3934 46.6855 33.5672 47.2832 33.9148 47.6816C34.2625 48.0762 34.7 48.2734 35.2273 48.2734C35.7508 48.2734 36.1863 48.0742 36.534 47.6758C36.8816 47.2773 37.0555 46.6699 37.0555 45.8535C37.0555 45.084 36.8797 44.502 36.5281 44.1074C36.1805 43.709 35.7469 43.5098 35.2273 43.5098C34.7 43.5098 34.2625 43.707 33.9148 44.1016C33.5672 44.4961 33.3934 45.0918 33.3934 45.8887ZM39.6816 42.7773H40.7363V47.5234L43.6602 42.7773H44.7969V49H43.7422V44.2832L40.8184 49H39.6816V42.7773ZM43.3438 40.4219H44.0645C44.0059 40.9102 43.8262 41.2852 43.5254 41.5469C43.2285 41.8086 42.832 41.9395 42.3359 41.9395C41.8359 41.9395 41.4355 41.8105 41.1348 41.5527C40.8379 41.291 40.6602 40.9141 40.6016 40.4219H41.3223C41.377 40.6875 41.4844 40.8867 41.6445 41.0195C41.8086 41.1484 42.0273 41.2129 42.3008 41.2129C42.6172 41.2129 42.8555 41.1504 43.0156 41.0254C43.1797 40.8965 43.2891 40.6953 43.3438 40.4219ZM46.1164 42.7773H51.173V43.6504H49.1691V49H48.1203V43.6504H46.1164V42.7773ZM52.4809 42.7773H53.5355V47.5234L56.4594 42.7773H57.5961V49H56.5414V44.2832L53.6176 49H52.4809V42.7773Z" fill="black"/>
<path d="M40 21.988C40.9129 21.988 41.7497 21.7639 42.5105 21.3157C43.2713 20.8675 43.8759 20.2633 44.3243 19.503C44.7728 18.7427 44.997 17.9064 44.997 16.994C44.997 16.0816 44.7728 15.2453 44.3243 14.485C43.8759 13.7247 43.2713 13.1204 42.5105 12.6723C41.7497 12.2241 40.9129 12 40 12C39.0871 12 38.2503 12.2241 37.4895 12.6723C36.7287 13.1204 36.1241 13.7247 35.6757 14.485C35.2272 15.2453 35.003 16.0816 35.003 16.994C35.003 17.9064 35.2272 18.7427 35.6757 19.503C36.1241 20.2633 36.7287 20.8675 37.4895 21.3157C38.2503 21.7639 39.0871 21.988 40 21.988ZM40 12.9844C40.7207 12.9844 41.3894 13.1645 42.006 13.5246C42.6226 13.8848 43.1111 14.3729 43.4715 14.9892C43.8318 15.6054 44.012 16.2737 44.012 16.994C44.012 17.7143 43.8318 18.3826 43.4715 18.9988C43.1111 19.615 42.6226 20.1032 42.006 20.4634C41.3894 20.8235 40.7207 21.0036 40 21.0036C39.2793 21.0036 38.6106 20.8235 37.994 20.4634C37.3774 20.1032 36.8889 19.615 36.5285 18.9988C36.1682 18.3826 35.988 17.7143 35.988 16.994C35.988 16.2737 36.1682 15.6054 36.5285 14.9892C36.8889 14.3729 37.3774 13.8848 37.994 13.5246C38.6106 13.1645 39.2793 12.9844 40 12.9844ZM40 23.9808C38.4945 23.9808 37.1331 24.3089 35.9159 24.9652C34.6987 25.6214 33.7457 26.5098 33.0571 27.6303C32.3524 28.7987 32 30.0872 32 31.4958V32H48V31.4958C48 30.0872 47.6476 28.7987 46.9429 27.6303C46.2543 26.5098 45.3013 25.6214 44.0841 24.9652C42.8669 24.3089 41.5055 23.9808 40 23.9808ZM32.985 30.9916C33.0651 29.8551 33.4214 28.8307 34.0541 27.9184C34.6867 27.006 35.5195 26.2897 36.5526 25.7695C37.5856 25.2493 38.7347 24.9892 40 24.9892C41.2653 24.9892 42.4144 25.2493 43.4474 25.7695C44.4805 26.2897 45.3093 27.006 45.9339 27.9184C46.5586 28.8307 46.9189 29.8551 47.015 30.9916H32.985Z" fill="black"/>
</svg>
